<?xml version="1.0" encoding="UTF-8" standalone="no"?>
<!DOCTYPE svg PUBLIC "-//W3C//DTD SVG 1.1//EN" "http://www.w3.org/Graphics/SVG/1.1/DTD/svg11.dtd">
<svg version="1.1" xmlns="http://www.w3.org/2000/svg" xmlns:xlink="http://www.w3.org/1999/xlink" preserveAspectRatio="xMidYMid meet" viewBox="0 0 640 640" width="640" height="640"><defs><path d="M602.62 101.75C607.99 101.75 612.34 106.1 612.34 111.46C612.34 197.84 612.34 447.27 612.34 533.65C612.34 539.01 607.99 543.36 602.62 543.36C487.63 543.36 152.37 543.36 37.38 543.36C32.01 543.36 27.66 539.01 27.66 533.65C27.66 447.27 27.66 197.84 27.66 111.46C27.66 106.1 32.01 101.75 37.38 101.75C152.37 101.75 487.63 101.75 602.62 101.75Z" id="bAo2g0vVI"></path><path d="M30.95 104.67L283.5 104.67L283.5 541.17L30.95 541.17L30.95 104.67Z" id="e1mHd0pv9N"></path><path d="M563.33 148.47C568.42 148.47 572.55 152.6 572.55 157.69C572.55 166.07 572.55 181.96 572.55 190.34C572.55 195.43 568.42 199.56 563.33 199.56C514.66 199.56 377.89 199.56 329.23 199.56C324.13 199.56 320 195.43 320 190.34C320 181.96 320 166.07 320 157.69C320 152.6 324.13 148.47 329.23 148.47C377.89 148.47 514.66 148.47 563.33 148.47Z" id="mqjyvMDfH"></path><path d="M563.33 243.14C568.42 243.14 572.55 247.27 572.55 252.37C572.55 260.74 572.55 276.63 572.55 285.01C572.55 290.1 568.42 294.23 563.33 294.23C514.66 294.23 377.89 294.23 329.23 294.23C324.13 294.23 320 290.1 320 285.01C320 276.63 320 260.74 320 252.37C320 247.27 324.13 243.14 329.23 243.14C377.89 243.14 514.66 243.14 563.33 243.14Z" id="bMXRak8uT"></path><path d="M563.33 340.44C568.42 340.44 572.55 344.57 572.55 349.66C572.55 358.04 572.55 373.93 572.55 382.31C572.55 387.4 568.42 391.53 563.33 391.53C514.66 391.53 377.89 391.53 329.23 391.53C324.13 391.53 320 387.4 320 382.31C320 373.93 320 358.04 320 349.66C320 344.57 324.13 340.44 329.23 340.44C377.89 340.44 514.66 340.44 563.33 340.44Z" id="duEDgfhho"></path><path d="M563.33 436.86C568.42 436.86 572.55 440.99 572.55 446.09C572.55 454.46 572.55 470.36 572.55 478.73C572.55 483.83 568.42 487.96 563.33 487.96C514.66 487.96 377.89 487.96 329.23 487.96C324.13 487.96 320 483.83 320 478.73C320 470.36 320 454.46 320 446.09C320 440.99 324.13 436.86 329.23 436.86C377.89 436.86 514.66 436.86 563.33 436.86Z" id="c4sPG8NOTB"></path></defs><g><g><g><use xlink:href="#bAo2g0vVI" opacity="1" fill="#ffffff" fill-opacity="1"></use><g><use xlink:href="#bAo2g0vVI" opacity="1" fill-opacity="0" stroke="#003459" stroke-width="10" stroke-opacity="1"></use></g></g><g><use xlink:href="#e1mHd0pv9N" opacity="1" fill="#003459" fill-opacity="1"></use></g><g><use xlink:href="#mqjyvMDfH" opacity="1" fill="#003459" fill-opacity="1"></use></g><g><use xlink:href="#bMXRak8uT" opacity="1" fill="#003459" fill-opacity="1"></use></g><g><use xlink:href="#duEDgfhho" opacity="1" fill="#003459" fill-opacity="1"></use></g><g><use xlink:href="#c4sPG8NOTB" opacity="1" fill="#003459" fill-opacity="1"></use></g></g></g></svg>